<svg xmlns="http://www.w3.org/2000/svg" viewBox="0 0 300 300">
  <style>
    :root{
      /* צבעים מרכזיים - אפשר לשנות חופשי */
      --skin:#F7D7C8;
      --blush:#F5A3B6;
      --hair:#3B2A3F;
      --eyes:#2C2433;
      --line:#2E2233;

      --top:#FF8DBA;      /* חולצה/שמלה */
      --bottom:#FFE1EC;   /* חצאית/מכנס */
      --shoes:#7B6AF7;
      --accent:#FFD86B;   /* כוכבים/דקורציה */
      --bg:#FDF6FA;
      --card:#F7EAF3;
    }

    .card{ fill:var(--card); stroke:#E6D3E0; stroke-width:3; }
    .line{ stroke:var(--line); stroke-width:2.2; stroke-linecap:round; stroke-linejoin:round; fill:none; }
    .shadow{ fill:#EEDBE6; }
    .skin{ fill:var(--skin); }
    .hair{ fill:var(--hair); }
    .eye{ fill:var(--eyes); }
    .blush{ fill:var(--blush); opacity:.7; }
    .top{ fill:var(--top); }
    .bottom{ fill:var(--bottom); }
    .shoes{ fill:var(--shoes); }
    .star{ fill:var(--accent); }

    /* אנימציה עדינה */
    @keyframes floaty { 0%{ transform:translateY(0) } 50%{ transform:translateY(-3px) } 100%{ transform:translateY(0) } }
    .avatar { animation: floaty 2.8s ease-in-out infinite; transform-origin: 150px 180px; }
  </style>

  <!-- רקע קליל/כרטיס -->
  <rect x="25" y="25" width="250" height="250" rx="24" class="card"/>
  <ellipse cx="150" cy="220" rx="55" ry="10" class="shadow" />

  <g class="avatar">
    <!-- גוף בסיס -->
    <g id="body">
      <!-- ראש -->
      <circle cx="150" cy="110" r="42" class="skin"/>
      <!-- אוזניים -->
      <circle cx="112" cy="116" r="8" class="skin"/>
      <circle cx="188" cy="116" r="8" class="skin"/>

      <!-- שיער (שכבה תחתונה) -->
      <path class="hair" d="M110,110
        c-2,-28 20,-48 40,-48 s42,18 40,46
        c-10,-8 -22,-10 -40,-10 s-28,2 -40,12 z"/>

      <!-- עיניים + סומק -->
      <circle cx="135" cy="115" r="5.5" class="eye"/>
      <circle cx="165" cy="115" r="5.5" class="eye"/>
      <circle cx="133" cy="125" r="5.5" class="blush"/>
      <circle cx="167" cy="125" r="5.5" class="blush"/>

      <!-- פה קטן -->
      <path d="M142 130 q8 6 16 0" class="line"/>

      <!-- פוני/שיער עליון (אפשר להחליף צורה בהמשך) -->
      <path class="hair" d="M118,98
        c10,-12 24,-16 32,-16 s22,4 32,16
        c-8,4 -18,6 -32,6 s-24,-2 -32,-6z"/>

      <!-- טורסו (שמלה בסיסית) -->
      <path class="top" d="M120,155
        q30,-12 60,0 v38 q-30,18 -60,0 z"/>

      <!-- חצאית/מכנס -->
      <path class="bottom" d="M120,192 q30,12 60,0 v8 q-30,14 -60,0 z"/>

      <!-- רגליים -->
      <rect x="132" y="200" width="12" height="18" class="skin" rx="4"/>
      <rect x="156" y="200" width="12" height="18" class="skin" rx="4"/>

      <!-- נעליים -->
      <path class="shoes" d="M128,218 h20 a8,8 0 0 1 0,10 h-24 a6,6 0 0 1 4,-10z"/>
      <path class="shoes" d="M152,218 h20 a8,8 0 0 1 0,10 h-24 a6,6 0 0 1 4,-10z"/>
    </g>

    <!-- אקססוריז לדוגמה -->
    <g id="stars">
      <path class="star" d="M86 82 l4 8 9 1 -7 6 2 9 -8 -4 -8 4 2 -9 -7 -6 9 -1z"/>
      <path class="star" d="M214 82 l4 8 9 1 -7 6 2 9 -8 -4 -8 4 2 -9 -7 -6 9 -1z"/>
    </g>
  </g>
</svg>
